<svg width="55" height="44" viewBox="0 0 55 44" fill="none" xmlns="http://www.w3.org/2000/svg">
<path d="M55 44H33.871C31.7204 37.4815 30.6452 30.7457 30.6452 23.7926C30.6452 16.8395 32.5269 11.1358 36.2903 6.68148C40.1613 2.22716 45.8065 0 53.2258 0V10.5926C47.6344 10.5926 44.8387 14.1778 44.8387 21.3481V23.9556H55V44ZM24.3548 44H3.22581C1.07527 37.4815 0 30.7457 0 23.7926C0 16.8395 1.88172 11.1358 5.64516 6.68148C9.51613 2.22716 15.1613 0 22.5806 0V10.5926C16.9892 10.5926 14.1935 14.1778 14.1935 21.3481V23.9556H24.3548V44Z" fill="#D0DCDF"/>
</svg>
