<svg width="62" height="61" viewBox="0 0 62 61" fill="none" xmlns="http://www.w3.org/2000/svg">
<circle cx="20.0075" cy="40.9456" r="5.64775" stroke="#108EB6" stroke-width="1.5"/>
<circle cx="15.7617" cy="57.2889" r="2.91417" stroke="#108EB6" stroke-width="1.5"/>
<circle cx="5.40904" cy="49.379" r="2.91417" stroke="#108EB6" stroke-width="1.5"/>
<circle cx="3.66417" cy="36.3509" r="2.91417" stroke="#108EB6" stroke-width="1.5"/>
<line x1="16.1452" y1="54.2344" x2="18.3553" y2="46.4408" stroke="#108EB6" stroke-width="1.5"/>
<path d="M8.14258 47.8087L14.8893 43.8537" stroke="#108EB6" stroke-width="1.5"/>
<path d="M6.45593 37.2814L14.1914 39.3752" stroke="#108EB6" stroke-width="1.5"/>
<circle cx="6.39775" cy="6.39775" r="5.64775" transform="matrix(-1 0 0 1 48.3903 34.5479)" stroke="#108EB6" stroke-width="1.5"/>
<circle cx="3.66417" cy="3.66417" r="2.91417" transform="matrix(-1 0 0 1 49.9025 53.6248)" stroke="#108EB6" stroke-width="1.5"/>
<circle cx="3.66417" cy="3.66417" r="2.91417" transform="matrix(-1 0 0 1 60.2552 45.7148)" stroke="#108EB6" stroke-width="1.5"/>
<circle cx="3.66417" cy="3.66417" r="2.91417" transform="matrix(-1 0 0 1 62 32.6867)" stroke="#108EB6" stroke-width="1.5"/>
<line y1="-0.75" x2="8.10094" y2="-0.75" transform="matrix(-0.272824 -0.962064 -0.962064 0.272824 45.1332 54.439)" stroke="#108EB6" stroke-width="1.5"/>
<path d="M53.8574 47.8087L47.1107 43.8537" stroke="#108EB6" stroke-width="1.5"/>
<path d="M55.5441 37.2814L47.8086 39.3752" stroke="#108EB6" stroke-width="1.5"/>
<circle cx="6.39775" cy="6.39775" r="5.64775" transform="matrix(0.5 0.866025 0.866025 -0.5 22.2591 19.5229)" stroke="#108EB6" stroke-width="1.5"/>
<circle cx="3.66417" cy="3.66417" r="2.91417" transform="matrix(0.5 0.866025 0.866025 -0.5 38.0241 8.67493)" stroke="#108EB6" stroke-width="1.5"/>
<circle cx="3.66417" cy="3.66417" r="2.91417" transform="matrix(0.5 0.866025 0.866025 -0.5 25.9975 3.66418)" stroke="#108EB6" stroke-width="1.5"/>
<circle cx="3.66417" cy="3.66417" r="2.91417" transform="matrix(0.5 0.866025 0.866025 -0.5 13.8424 8.66718)" stroke="#108EB6" stroke-width="1.5"/>
<line y1="-0.75" x2="8.10094" y2="-0.75" transform="matrix(-0.69676 0.717305 0.717305 0.69676 41.1139 12.3981)" stroke="#108EB6" stroke-width="1.5"/>
<path d="M31.0097 8.1579L30.9579 15.9782" stroke="#108EB6" stroke-width="1.5"/>
<path d="M21.0495 11.9608L26.7306 17.613" stroke="#108EB6" stroke-width="1.5"/>
<line x1="25.7073" y1="41.2425" x2="36.409" y2="41.2425" stroke="#108EB6" stroke-width="1.5"/>
<path d="M23.09 35.9437L28.3245 27.045" stroke="#108EB6" stroke-width="1.5"/>
<path d="M38.9681 35.9437L33.7336 27.045" stroke="#108EB6" stroke-width="1.5"/>
</svg>
