<svg width="28" height="31" viewBox="0 0 28 31" fill="none" xmlns="http://www.w3.org/2000/svg">
<path fill-rule="evenodd" clip-rule="evenodd" d="M24.8562 22.9865L15.5471 28.2738C15.6247 28.4558 15.6664 28.6543 15.6664 28.8632C15.6664 29.7109 14.968 30.3973 14.107 30.3973C13.2459 30.3973 12.5475 29.7109 12.5475 28.8632C12.5474 28.6661 12.5859 28.4709 12.6609 28.2887L3.39211 23.0253C3.10855 23.3148 2.71164 23.4939 2.27135 23.4939C1.41032 23.4939 0.711914 22.8074 0.711914 21.9597C0.71384 21.6172 0.829921 21.285 1.04181 21.0158C1.25369 20.7466 1.54932 20.5557 1.88184 20.4734V9.98686C1.20888 9.81674 0.711914 9.21683 0.711914 8.50051C0.716273 8.09045 0.88274 7.69877 1.17492 7.41104C1.4671 7.12331 1.86126 6.96292 2.27135 6.96492C2.51598 6.96422 2.75726 7.02082 2.97594 7.13018C3.19472 7.23954 3.38471 7.39862 3.5309 7.59467L12.5923 2.44915C12.5394 2.22157 12.5385 1.98495 12.5902 1.75704C12.6417 1.52913 12.7441 1.31586 12.8899 1.13321C13.0356 0.950569 13.2208 0.8033 13.4316 0.702454C13.6425 0.601607 13.8733 0.549802 14.107 0.550924C14.3398 0.549717 14.5699 0.601051 14.7801 0.701105C14.9903 0.801159 15.1753 0.947353 15.3211 1.1288C15.4669 1.31024 15.57 1.52226 15.6225 1.74906C15.6752 1.97586 15.6759 2.2116 15.6247 2.43871L24.7398 7.61557C24.8855 7.41399 25.077 7.24998 25.2986 7.1371C25.5202 7.02422 25.7655 6.96571 26.0142 6.96641C26.8753 6.96641 27.5737 7.65287 27.5737 8.50051C27.5737 9.21683 27.0738 9.81972 26.3992 9.98836L26.3723 20.4659C27.0603 20.6241 27.5737 21.233 27.5737 21.9597C27.5737 22.8074 26.8753 23.4939 26.0142 23.4939C25.5546 23.4939 25.1412 23.2984 24.8562 22.9865ZM14.107 27.3291C14.4824 27.3283 14.8458 27.4622 15.1307 27.7067L24.5144 22.3761C24.4269 22.0717 24.4374 21.7475 24.5442 21.4494L15.4919 15.6293C15.3081 15.8228 15.0848 15.9745 14.8371 16.0741C14.5896 16.1736 14.3234 16.2187 14.0568 16.2062C13.7902 16.1938 13.5294 16.1241 13.2922 16.0019C13.0549 15.8796 12.8467 15.7078 12.6818 15.498L3.76225 21.5076C3.85582 21.8072 3.85369 22.1285 3.75627 22.4268L13.0713 27.7171C13.3459 27.4754 13.71 27.3291 14.107 27.3291ZM24.4726 8.2692L15.3083 3.06399C15.1008 3.30873 14.8159 3.49079 14.4919 3.57287L14.4681 12.6089C14.8907 12.6802 15.2746 12.8983 15.5522 13.2247C15.8298 13.5512 15.9834 13.9651 15.9858 14.3937C15.9858 14.619 15.944 14.8369 15.8665 15.0369L24.9263 20.8614C25.1262 20.6689 25.38 20.5286 25.6635 20.4644L25.6903 10.0003C25.3048 9.92168 24.9638 9.6986 24.7375 9.37675C24.5111 9.0549 24.4163 8.65866 24.4726 8.2692ZM13.7831 3.5863C13.4355 3.51467 13.1325 3.32813 12.9132 3.07145L3.80848 8.24234C3.87316 8.63643 3.78232 9.04022 3.55513 9.36869C3.32804 9.69715 2.98233 9.92465 2.5907 10.0033V20.457C2.90021 20.5203 3.18326 20.6759 3.40255 20.9032L12.364 14.8682C12.3006 14.6287 12.2869 14.3788 12.3235 14.1337C12.3602 13.8887 12.4465 13.6537 12.5771 13.4432C12.7078 13.2326 12.8799 13.051 13.0832 12.9093C13.2864 12.7676 13.5166 12.669 13.7593 12.6193L13.7831 3.5863Z" fill="#108EB6" stroke="#108EB6" stroke-width="0.830508"/>
</svg>
