<svg width="52" height="45" viewBox="0 0 52 45" fill="none" xmlns="http://www.w3.org/2000/svg">
<path d="M37.5179 6H37.1429L29.7147 6C29.7146 6 29.7144 6 29.7143 6C28.8302 6.00114 27.9818 6.3562 27.3556 6.9885C26.7292 7.62093 26.3761 8.4791 26.375 9.375C26.375 9.37514 26.375 9.37528 26.375 9.37543M37.5179 6L26 9.375L26.375 9.37543M37.5179 6V5.625V0.375M37.5179 6V0.375M26.375 9.37543L26.375 20.625V21H26H14.8571H14.4821V20.625V15.375H0.375V29.625H14.4821L26.375 9.37543ZM37.5179 0.375H51.625V14.625H37.5179V9.375V9H37.1429H29.7143H29.3393V9.375V35.625V36H29.7143H37.1429H37.5179V35.625V30.375H51.625V44.625H37.5179V39.375V39H37.1429H29.7147C28.8304 38.999 27.9819 38.6439 27.3556 38.0115C26.7292 37.3791 26.3761 36.5209 26.375 35.625C26.375 35.6249 26.375 35.6247 26.375 35.6246L37.5179 0.375ZM11.1429 26.625H11.5179V26.25V18.75V18.375H11.1429H3.71429H3.33929V18.75V26.25V26.625H3.71429H11.1429ZM40.8571 33.375H40.4821V33.75V41.25V41.625H40.8571H48.2857H48.6607V41.25V33.75V33.375H48.2857H40.8571ZM40.8571 3.375H40.4821V3.75V11.25V11.625H40.8571H48.2857H48.6607V11.25V3.75V3.375H48.2857H40.8571Z" fill="#108EB6" stroke="white" stroke-width="0.75"/>
</svg>
