<svg width="42" height="51" viewBox="0 0 42 51" fill="none" xmlns="http://www.w3.org/2000/svg">
<path d="M41 50H39.835V41.5477C39.835 32.8016 33.8819 25.2853 25.3592 23.2711C25.1165 23.213 24.9369 23.008 24.9142 22.7611C24.89 22.5125 25.0291 22.2769 25.2573 22.1752C29.0437 20.4951 31.4887 16.7442 31.4887 12.6222C31.4887 6.85547 26.7848 2.16367 21.0032 2.16367C15.2201 2.16367 10.5162 6.85547 10.5162 12.6222C10.5162 16.7459 12.9628 20.4951 16.7476 22.1752C16.9757 22.2769 17.1133 22.5125 17.0906 22.7611C17.068 23.008 16.8883 23.2146 16.6456 23.2711C8.11812 25.2853 2.16505 32.8016 2.16505 41.5477V50H1V41.5477C1 32.7612 6.65858 25.1433 14.9337 22.5368C11.4984 20.4451 9.3479 16.6974 9.3479 12.6206C9.3479 6.21311 14.5744 1 21 1C27.4256 1 32.6521 6.21311 32.6521 12.6206C32.6521 16.6958 30.5016 20.4434 27.0663 22.5368C35.3414 25.1433 41 32.7596 41 41.5477V50ZM27.8851 37.4998L27.0599 36.6767L19.3819 44.3366L16.5566 41.5186L15.733 42.3417L19.3819 45.9796L27.8851 37.4998Z" fill="#108EB6" stroke="#108EB6"/>
</svg>
