<svg width="35" height="45" viewBox="0 0 35 45" fill="none" xmlns="http://www.w3.org/2000/svg">
<path fill-rule="evenodd" clip-rule="evenodd" d="M10.5 0C8.56695 0 7 1.54979 7 3.46154H3.5C1.56695 3.46154 0 5.01132 0 6.92307V39.2307C0 41.1425 1.56695 42.6923 3.5 42.6923H17.5V40.3846H3.5C2.85565 40.3846 2.33333 39.868 2.33333 39.2307V6.92307C2.33333 6.28583 2.85565 5.76923 3.5 5.76923H7C7 7.68103 8.56695 9.23076 10.5 9.23076H19.8333C21.7664 9.23076 23.3333 7.68103 23.3333 5.76923H26.8333C27.4777 5.76923 28 6.28583 28 6.92307V24.2308H30.3333V6.92307C30.3333 5.01132 28.7664 3.46154 26.8333 3.46154H23.3333C23.3333 1.54979 21.7664 0 19.8333 0H10.5ZM9.33333 3.46154C9.33333 2.82429 9.85565 2.30769 10.5 2.30769H19.8333C20.4777 2.30769 21 2.82429 21 3.46154V5.76923C21 6.40647 20.4777 6.92307 19.8333 6.92307H10.5C9.85565 6.92307 9.33333 6.40647 9.33333 5.76923V3.46154ZM14 17.3077V13.8461H16.3333V17.3077H19.8333V19.6154H16.3333V23.0769H14V19.6154H10.5V17.3077H14ZM18.6667 27.6923C18.6667 27.055 19.189 26.5384 19.8333 26.5384H33.8333C34.4777 26.5384 35 27.055 35 27.6923V35.5256C35 38.2262 33.6353 40.748 31.3634 42.2461L27.4805 44.8062C27.0886 45.0646 26.5781 45.0646 26.1862 44.8062L22.3033 42.2461C20.0313 40.748 18.6667 38.2262 18.6667 35.5256V27.6923ZM21 28.8461V35.5256C21 37.4546 21.9747 39.2559 23.5976 40.326L26.8333 42.4593L30.0691 40.326C31.6919 39.2559 32.6667 37.4546 32.6667 35.5256V28.8461H21ZM26.4916 37.739L31.1583 33.1237L29.5083 31.4919L25.6667 35.2914L24.1583 33.7996L22.5083 35.4314L24.8416 37.739C25.2973 38.1896 26.0359 38.1896 26.4916 37.739Z" fill="#108EB6"/>
</svg>
